# xmcd
#
# Track frame offsets:
#	150
#	14045
#	30188
#	40273
#	52287
#	66246
#	83404
#	97581
#	109676
#	132767
#	146410
#	157791
#	174859
#
# Disc length: 2542 seconds
#
# Revision: 0
# Processed by: cddbd v1.5.1PL0 Copyright (c) Steve Scherf et al.
# Submitted via: dBpowerAMP V4.0
#
DISCID=9509ec0d
DTITLE=Shanegang - From Scratch
DYEAR=2004
DGENRE=Blues
TTITLE0=Move Out To The Country
TTITLE1=Werewolf
TTITLE2=Key to the Highway
TTITLE3=Pleasure is my Business
TTITLE4=Red House
TTITLE5=Time to Kill
TTITLE6=Talk to me Baby
TTITLE7=One After 909
TTITLE8=Have a Little Faith(In Me)
TTITLE9=E-Train
TTITLE10=Tore Down
TTITLE11=Can't You See
TTITLE12=South Side Boy
EXTD=
EXTT0=
EXTT1=
EXTT2=
EXTT3=
EXTT4=
EXTT5=
EXTT6=
EXTT7=
EXTT8=
EXTT9=
EXTT10=
EXTT11=
EXTT12=
PLAYORDER=
